<svg xmlns="http://www.w3.org/2000/svg" width="57.246" height="57.258" viewBox="0 0 57.246 57.258">
  <g id="Raggruppa_10" data-name="Raggruppa 10" transform="translate(-103.067 -253.366)">
    <path id="Tracciato_26" data-name="Tracciato 26" d="M215.438,319.648l4.071-4.071,3.939,3.939-4.071,4.072" transform="translate(-80.627 -44.637)" fill="#fff" fill-rule="evenodd"/>
    <path id="Tracciato_27" data-name="Tracciato 27" d="M144.956,282.722h15.357v-1.134h-7.06V260.533H132.2v-7.167h-1.172v7.168H110V281.59h-6.929v1.133h6.911V303.8h21.051v6.824h1.152V296.951h-1.152v5.67H111.108V282.73h5.608v-1.164h-5.6V261.69h19.9v5.326h1.189v-5.3h19.9v19.846h-7.136" transform="translate(0 0)" fill="#fff" fill-rule="evenodd"/>
    <path id="Tracciato_28" data-name="Tracciato 28" d="M194.752,310.137h4.088v3.948h-4.088m-.835-4.759h5.757V314.9h-5.757Z" transform="translate(-65.186 -40.152)" fill="#fff" fill-rule="evenodd"/>
    <path id="Tracciato_29" data-name="Tracciato 29" d="M194.752,382.29h4.088v3.947h-4.088m-.835-4.759h5.757v5.572h-5.757Z" transform="translate(-65.186 -91.922)" fill="#fff" fill-rule="evenodd"/>
    <path id="Tracciato_30" data-name="Tracciato 30" d="M165.582,319.631l2.891-2.89,2.792,2.792-2.89,2.89m-3.956-2.775,4.071-4.071,3.94,3.94-4.071,4.071Z" transform="translate(-44.02 -44.637)" fill="#fff" fill-rule="evenodd"/>
    <path id="Tracciato_31" data-name="Tracciato 31" d="M216.6,370.65l2.89-2.89,2.792,2.792-2.89,2.89m-3.956-2.775,4.071-4.071,3.94,3.94-4.071,4.071Z" transform="translate(-80.628 -81.244)" fill="#fff" fill-rule="evenodd"/>
    <path id="Tracciato_32" data-name="Tracciato 32" d="M168.375,367.76l2.89,2.89-2.792,2.792-2.89-2.89m2.775-3.955,4.071,4.071-3.94,3.94-4.071-4.071Z" transform="translate(-44.02 -81.244)" fill="#fff" fill-rule="evenodd"/>
    <path id="Tracciato_33" data-name="Tracciato 33" d="M158.551,346.2h4.087v3.948h-4.087m-.834-4.759h5.757v5.571h-5.757Z" transform="translate(-39.212 -66.027)" fill="#fff" fill-rule="evenodd"/>
  </g>
</svg>
