<svg xmlns="http://www.w3.org/2000/svg" width="50.13" height="215.924" viewBox="0 0 50.13 215.924">
  <path id="Tracciato_34" data-name="Tracciato 34" d="M542.723,484.719a13.841,13.841,0,0,0,1.431.212c.516.052,1.093.076,1.735.076,3.656,0,6.458-.954,8.429-2.875s2.942-4.651,2.942-8.2c0-2.965-.755-5.179-2.251-6.621s-3.768-2.174-6.847-2.174c-1.193,0-2.135.012-2.814.05s-1.32.1-1.923.177a31.961,31.961,0,0,0-.539,5.126q-.168,3.524-.162,9.961v.8m-6.2-18.62q4.429,0,9.876-.264c3.632-.163,5.8-.251,6.509-.251,3.808,0,6.683.815,8.656,2.45s2.941,4.033,2.941,7.186a12.834,12.834,0,0,1-2.9,8.267A21.209,21.209,0,0,1,553.063,486l10.779,15.026a74.053,74.053,0,0,0,4.949,6.206,25.494,25.494,0,0,0,4.071,3.732h-7.135a3.79,3.79,0,0,1-3.794-1.948L549.055,490.9a8.2,8.2,0,0,0-2.614-2.613,6.9,6.9,0,0,0-3.128-.628h-.59v4.6a142.16,142.16,0,0,0,.426,14.31,8.6,8.6,0,0,0,1.445,4.4H534.367c.692-.742,1.169-2.425,1.446-5.075s.427-8.331.427-17.012v-3.091q0-14.208-.427-18.129c-.277-2.614-.754-4.286-1.446-5.027ZM497.04,510.965c.69-.742,1.169-2.425,1.445-5.075s.427-8.318.427-17.012v-3.091q0-14.208-.427-18.129c-.276-2.614-.755-4.286-1.445-5.027h4.674c3.329,0,7.122-.038,11.357-.113s6.8-.112,7.7-.112c.051,0,.2.012.44.037.767.024,1.507.036,2.211.036l.591,7.112a5.447,5.447,0,0,0-3.556-3.241q-2.655-.924-10.163-.918h-4.2a31.881,31.881,0,0,0-.539,5.253q-.171,3.656-.164,10.579v2.5c.615.05,1.307.086,2.1.111s2.048.039,3.794.039q4.448,0,7.462-.2a50.309,50.309,0,0,0,5.417-.641,11.219,11.219,0,0,1-5.466,3.379q-3.411,1-11.358.993c-.126,0-.4-.012-.829-.038s-.8-.038-1.119-.038v4.9c0,4.611.05,8.141.164,10.617a32.072,32.072,0,0,0,.539,5.276h4.336c4.987,0,8.719-.4,11.219-1.192a11.281,11.281,0,0,0,5.817-4l-1.283,7.55a32.83,32.83,0,0,1-3.442.441q-1.938.148-4.071.149-1.735,0-6.859-.075t-8.594-.074Zm-29.639.364c-1.309-4.952-3.984-14.3-3.984-14.3s-3.444-11.256-5.187-16.252q-4.524-12.947-7.766-18.143h5.491a4.558,4.558,0,0,1,2.388.39,4.374,4.374,0,0,1,1.067,1.9c.666,1.572,1.307,3.281,1.936,5.127s1.369,4.183,2.224,6.986l8.833,28.192,8.2-20.578a102.554,102.554,0,0,0,3.72-11.133,33.9,33.9,0,0,0,1.394-7.638,9.339,9.339,0,0,0-.125-1.47,15.3,15.3,0,0,0-.389-1.734l9.573-.038q-5.3,7.5-15.894,34.966-3.468,8.912-5.378,13.732Zm-43.61.553q-10.646,0-16.4-6.269-5.769-6.276-5.766-17.879,0-12.628,6.257-19.3,6.258-6.689,18.08-6.683,11.157,0,16.785,5.941,5.634,5.956,5.628,17.73,0,12.024-6.7,19.248Q434.972,511.887,423.791,511.882Zm2.314-3.644a12.692,12.692,0,0,0,10.8-5.315q3.919-5.313,3.92-14.813,0-10.7-4.2-16.836a13.209,13.209,0,0,0-11.484-6.13c-5.013,0-8.906,1.81-11.71,5.417s-4.195,8.656-4.195,15.15q0,10.686,4.435,16.6Q418.107,508.246,426.1,508.238Zm-32.327-45.607-.442,10.353a12.913,12.913,0,0,0-4.522-5.931,12.309,12.309,0,0,0-7.075-1.984q-8.085,0-12.7,5.341t-4.623,14.725q0,9.668,5.065,15.415,5.049,5.75,13.517,5.743a18.2,18.2,0,0,0,7.488-1.546,17.4,17.4,0,0,0,6.019-4.421,14.048,14.048,0,0,1-5.944,8.406,19.253,19.253,0,0,1-11.095,3.152A21.029,21.029,0,0,1,363.271,505q-6.331-6.879-6.332-17.7,0-11.966,6.811-18.756t18.807-6.785a53.83,53.83,0,0,1,5.6.44A50.321,50.321,0,0,0,393.778,462.631Z" transform="translate(-461.752 572.863) rotate(-90)" fill="#fff" fill-rule="evenodd"/>
</svg>
