<svg xmlns="http://www.w3.org/2000/svg" width="78.914" height="81.004" viewBox="0 0 78.914 81.004">
  <g id="Livello_2" data-name="Livello 2" transform="translate(0 0.03)">
    <g id="Livello_2-2" data-name="Livello 2" transform="translate(0.5 0.474)">
      <circle id="Ellisse_58" data-name="Ellisse 58" cx="4.176" cy="4.176" r="4.176" transform="translate(4.41 67.238)" fill="none" stroke-miterlimit="10" stroke-width="1"/>
      <circle id="Ellisse_59" data-name="Ellisse 59" cx="8.586" cy="8.586" r="8.586" transform="translate(0 62.828)" fill="none" stroke-miterlimit="10" stroke-width="1"/>
      <circle id="Ellisse_60" data-name="Ellisse 60" cx="4.176" cy="4.176" r="4.176" transform="translate(61.929 66.931)" fill="none" stroke-miterlimit="10" stroke-width="1"/>
      <circle id="Ellisse_61" data-name="Ellisse 61" cx="8.586" cy="8.586" r="8.586" transform="translate(57.582 62.828)" fill="none" stroke-miterlimit="10" stroke-width="1"/>
      <path id="Tracciato_10" data-name="Tracciato 10" d="M82.391,48.393s.908-8.125.908-14.721a9.772,9.772,0,0,0-5.972-8.995L67.315,21.112s.182,1.337.715-7.221C68.685,3.919,57.971.658,57.971.658,38.43-.467,36.341,3.936,36.341,3.936,30.223,8.049,26.39,14.914,25.567,16.073S19.907,28.294,19.36,28.909s-.715,1.784-1.28,2.231-1.927,5.416-1.927,5.416A23.474,23.474,0,0,0,15.526,39a5.13,5.13,0,0,0,.547,3.3c.358.7-.64,1.515-.64,1.515C6.136,53.8,8.221,61.5,8.221,61.5c1.627-1.728,5.9-1.816,5.9-1.816s-.883-2.5.4-3.492,5.932.534,5.932.534,3.576,3.925,5.571,6.6,4.2,2.228,4.2,2.228a106.956,106.956,0,0,0,11.4-1.068c7.03-.981,7.667-2.944,7.667-2.944l4.52-8.446,23.207-1.18S82.051,51.787,82.391,48.393Z" transform="translate(-5.395 -0.474)" fill="none" stroke-miterlimit="10" stroke-width="1"/>
      <path id="Tracciato_11" data-name="Tracciato 11" d="M124.337,166.71s6.051,1.285,6.571.988,4.354-5.409,8.879-5.918,8.872-1.048,13.555,4.752c0,0,.723,3.492,1.927,4.33s.066,1.247.066,1.247a2.793,2.793,0,0,1-2.884-2.165,7.944,7.944,0,0,0-9.019-5.056c-5.136.81-6.526,1.508-8.789,7.612,0,0-.2,3.045-3.143,2.755s-8.031-1.446-8.031-1.446-1.5.258-1.254-1.718.395-4.218.395-4.218Z" transform="translate(-77.928 -103.446)" fill="none" stroke-miterlimit="10" stroke-width="1"/>
      <path id="Tracciato_12" data-name="Tracciato 12" d="M70.036,184.174c-.265,0,.89,5.615.89,5.615l15.961-1.47.656-7.088S82.875,183.461,70.036,184.174Z" transform="translate(-44.997 -116.297)" fill="none" stroke-miterlimit="10" stroke-width="1"/>
      <path id="Tracciato_13" data-name="Tracciato 13" d="M48.722,62.934,45.6,42.333,47.161,31.2s3.7-12.919,11.366-18.544S79.745,8.376,79.745,8.376s11.428,2.318,8.611,16.135L72.34,65.344s.349,1.693-5.52,2.675a98.815,98.815,0,0,1-12.036,1.124s-1.606.747-3.841-2.731Z" transform="translate(-29.006 -5.525)" fill="none" stroke-miterlimit="10" stroke-width="1"/>
      <path id="Tracciato_14" data-name="Tracciato 14" d="M59.64,39.526s1.428-8.649,4.19-11.233,3.747-8.111,14.979-9.449,12.919.978,12.919.978,3.3,2.5,2.318,8.38-.223,6.152-1.316,7.134S59.64,39.526,59.64,39.526Z" transform="translate(-38.11 -12.159)" fill="none" stroke-miterlimit="10" stroke-width="1"/>
    </g>
  </g>
</svg>
