<svg xmlns="http://www.w3.org/2000/svg" width="81.011" height="79.214" viewBox="0 0 81.011 79.214">
  <g id="Livello_2" data-name="Livello 2" transform="translate(0 0.021)">
    <g id="Livello_2-2" data-name="Livello 2" transform="translate(0.5 0.512)">
      <circle id="Ellisse_11" data-name="Ellisse 11" cx="4.083" cy="4.083" r="4.083" transform="translate(4.312 65.704)" fill="none" stroke="#000" stroke-miterlimit="10" stroke-width="1"/>
      <circle id="Ellisse_12" data-name="Ellisse 12" cx="8.394" cy="8.394" r="8.394" transform="translate(0 61.393)" fill="none" stroke="#000" stroke-miterlimit="10" stroke-width="1"/>
      <circle id="Ellisse_13" data-name="Ellisse 13" cx="4.083" cy="4.083" r="4.083" transform="translate(58.816 65.407)" fill="none" stroke="#000" stroke-miterlimit="10" stroke-width="1"/>
      <circle id="Ellisse_14" data-name="Ellisse 14" cx="8.394" cy="8.394" r="8.394" transform="translate(54.566 61.393)" fill="none" stroke="#000" stroke-miterlimit="10" stroke-width="1"/>
      <path id="Tracciato_1" data-name="Tracciato 1" d="M8.207,61.905s-2-7.51,6.886-17.287c0,0,.959-.785.611-1.482a5.145,5.145,0,0,1-.526-3.226c.259-1.307.6-2.39.6-2.39s1.318-4.858,1.84-5.295.7-1.567,1.222-2.178,5.145-11.405,5.93-12.539S29.2,9.657,35.053,5.656c0,0,7.671-4.67,22.224-5.121,0,0,1.744-.365,2.789,1.813,0,0,.785.174,1.307.259L61.9,2.7l14.642.263s.871.259.611.608l-.263.341A3.8,3.8,0,0,1,80.2,6.523c1.045,2.615,2.007,3.755,1.744,8.108s-.089,16.212,1.045,17.953-.683,1.919-.683,1.919l1.069.341v1.048s.85.608.85,1.045S85.444,47.83,85.444,47.83s.174,2.792-1.567,3.315a13.594,13.594,0,0,1-3.837.444l-.608.959L50.493,56.122l-3.052,5.841s-.608,1.915-7.319,2.874a100.453,100.453,0,0,1-10.91,1.045s-2.093.434-4.008-2.181-5.319-6.449-5.319-6.449-4.438-1.482-5.663-.522-.379,3.414-.379,3.414S9.76,60.219,8.207,61.905Z" transform="translate(-5.448 -0.512)" fill="none" stroke="#000" stroke-miterlimit="10" stroke-width="1"/>
      <path id="Tracciato_2" data-name="Tracciato 2" d="M124.289,171.705s5.916,1.256,6.425.97,4.257-5.291,8.681-5.8,8.674-1.024,13.252,4.65c0,0,.707,3.414,1.884,4.233s.065,1.219.065,1.219a2.731,2.731,0,0,1-2.82-2.12,7.768,7.768,0,0,0-8.818-4.94c-5.022.792-6.38,1.475-8.592,7.439,0,0-.191,2.98-3.072,2.7s-7.852-1.413-7.852-1.413-1.471.253-1.226-1.683.386-4.12.386-4.12Z" transform="translate(-80.647 -109.886)" fill="none" stroke="#000" stroke-miterlimit="10" stroke-width="1"/>
      <path id="Tracciato_3" data-name="Tracciato 3" d="M70.035,189.264c-.259.017.871,5.493.871,5.493l15.6-1.437.642-6.93S82.588,188.568,70.035,189.264Z" transform="translate(-46.272 -122.935)" fill="none" stroke="#000" stroke-miterlimit="10" stroke-width="1"/>
      <path id="Tracciato_4" data-name="Tracciato 4" d="M48.652,66.857,45.6,46.715l1.526-10.9s3.615-12.631,11.112-18.127,20.746-4.185,20.746-4.185S90.157,15.78,87.4,29.288L71.743,69.209s.341,1.656-5.4,2.615a95.834,95.834,0,0,1-11.767,1.1s-1.57.731-3.755-2.666Z" transform="translate(-30.204 -8.98)" fill="none" stroke="#000" stroke-miterlimit="10" stroke-width="1"/>
      <path id="Tracciato_5" data-name="Tracciato 5" d="M59.64,44.2s1.4-8.456,4.1-10.982,3.663-7.934,14.645-9.241,12.631.959,12.631.959,3.226,2.441,2.267,8.193S93.068,39.147,92,40.1,59.64,44.2,59.64,44.2Z" transform="translate(-39.451 -15.699)" fill="none" stroke="#000" stroke-miterlimit="10" stroke-width="1"/>
    </g>
  </g>
</svg>
