<svg xmlns="http://www.w3.org/2000/svg" width="85.773" height="81.004" viewBox="0 0 85.773 81.004">
  <g id="Livello_2" data-name="Livello 2" transform="translate(0 0)">
    <g id="Livello_2-2" data-name="Livello 2" transform="translate(0.5 0.504)">
      <circle id="Ellisse_62" data-name="Ellisse 62" cx="4.274" cy="4.274" r="4.274" transform="translate(4.513 66.939)" fill="none"  stroke-miterlimit="10" stroke-width="1"/>
      <circle id="Ellisse_63" data-name="Ellisse 63" cx="8.787" cy="8.787" r="8.787" transform="translate(0 62.426)" fill="none"  stroke-miterlimit="10" stroke-width="1"/>
      <circle id="Ellisse_64" data-name="Ellisse 64" cx="4.274" cy="4.274" r="4.274" transform="translate(61.566 66.625)" fill="none"  stroke-miterlimit="10" stroke-width="1"/>
      <circle id="Ellisse_65" data-name="Ellisse 65" cx="8.787" cy="8.787" r="8.787" transform="translate(57.117 62.426)" fill="none"  stroke-miterlimit="10" stroke-width="1"/>
      <path id="Tracciato_15" data-name="Tracciato 15" d="M52.869,56.1,49.95,62.858S48.634,65,41.609,66.006A104.436,104.436,0,0,1,30.2,67.1s-2.191.457-4.2-2.28-5.567-6.754-5.567-6.754-4.645-1.551-5.928-.547-.4,3.573-.4,3.573-4.288.089-5.9,1.858c0,0-2.1-7.861,7.208-18.1,0,0,1-.822.64-1.551a5.36,5.36,0,0,1-.55-3.395c.272-1.369.625-2.5.625-2.5s1.379-5.089,1.926-5.542.733-1.644,1.279-2.283,5.385-11.935,6.207-13.122S30.2,8.239,36.317,4.047c0,0,2.087-4.506,21.616-3.355,0,0,7.561.6,14.033,8.515l-4.013,3.284S69,18.33,66.9,21.979,52.869,56.1,52.869,56.1Z" transform="translate(-5.328 -0.504)" fill="none"  stroke-miterlimit="10" stroke-width="1"/>
      <path id="Tracciato_16" data-name="Tracciato 16" d="M124.387,166.832s6.193,1.315,6.725,1.011,4.456-5.535,9.087-6.057,9.08-1.072,13.872,4.863c0,0,.74,3.573,1.973,4.431s.068,1.276.068,1.276a2.859,2.859,0,0,1-2.952-2.215,8.129,8.129,0,0,0-9.23-5.174c-5.256.829-6.679,1.544-8.994,7.79,0,0-.2,3.116-3.216,2.819S123.5,174.1,123.5,174.1s-1.54.264-1.283-1.758.4-4.317.4-4.317Z" transform="translate(-78.705 -103.959)" fill="none"  stroke-miterlimit="10" stroke-width="1"/>
      <path id="Tracciato_17" data-name="Tracciato 17" d="M70.037,184.242c-.272,0,.911,5.746.911,5.746l16.334-1.5.672-7.254S83.177,183.513,70.037,184.242Z" transform="translate(-45.163 -116.649)" fill="none"  stroke-miterlimit="10" stroke-width="1"/>
      <path id="Tracciato_18" data-name="Tracciato 18" d="M48.795,64.214,45.6,43.131l1.6-11.4s3.784-13.222,11.631-18.978S80.544,8.38,80.544,8.38s11.7,2.373,8.812,16.513L72.965,66.68s.357,1.733-5.65,2.737A101.126,101.126,0,0,1,55,70.568s-1.644.765-3.931-2.794Z" transform="translate(-29.484 -5.472)" fill="none"  stroke-miterlimit="10" stroke-width="1"/>
      <path id="Tracciato_19" data-name="Tracciato 19" d="M59.64,40.02s1.462-8.851,4.288-11.5,3.834-8.3,15.33-9.67,13.222,1,13.222,1,3.377,2.555,2.373,8.576-.229,6.3-1.347,7.3S59.64,40.02,59.64,40.02Z" transform="translate(-38.507 -12.023)" fill="none"  stroke-miterlimit="10" stroke-width="1"/>
      <path id="Tracciato_20" data-name="Tracciato 20" d="M144.389,80.48s21.691,11.328,24.185,12.6,2.19.908,2.19,4.745c0,3.966-.175,4.31-.175,4.31a2.5,2.5,0,0,1-2.569,2.63c-2.662.243-34.48,2.734-34.48,2.734" transform="translate(-85.999 -51.901)" fill="none"  stroke-miterlimit="10" stroke-width="1"/>
      <path id="Tracciato_21" data-name="Tracciato 21" d="M140.74,110.1l9.105-22.952L172.69,98.814a2.028,2.028,0,0,1,1.179,1.537,38.768,38.768,0,0,1,0,4.806s.071,2.73-2.144,2.8C169.249,108.029,140.74,110.1,140.74,110.1Z" transform="translate(-90.627 -56.188)" fill="none"  stroke-miterlimit="10" stroke-width="1"/>
    </g>
  </g>
</svg>
