<svg xmlns="http://www.w3.org/2000/svg" width="90.034" height="90.032" viewBox="0 0 90.034 90.032">
  <g id="documents" transform="translate(0 -0.005)">
    <g id="Raggruppa_12" data-name="Raggruppa 12" transform="translate(0 0.005)">
      <path id="Tracciato_26" data-name="Tracciato 26" d="M89.405,52.2a1.758,1.758,0,0,0-1.711-1.352c-2.394,0-6.691-1.192-10.323-2.771V40.45A5.281,5.281,0,0,0,72.1,35.175H68.579V3.522A3.521,3.521,0,0,0,65.062,0H12.309A3.521,3.521,0,0,0,8.792,3.522v21.1H3.517A3.521,3.521,0,0,0,0,28.141V79.136a5.281,5.281,0,0,0,5.275,5.275H62.392a40.366,40.366,0,0,0,7.426,5.4,1.759,1.759,0,0,0,1.744,0c12.169-6.947,16.381-16.79,17.771-23.825A35.261,35.261,0,0,0,89.405,52.2ZM12.309,3.522H65.062V35.175H34.6l-2.947-7.369A4.931,4.931,0,0,0,27.1,24.624H12.309ZM3.517,79.136V77.377H12.66a1.758,1.758,0,0,0,0-3.517H3.517V28.141H27.1a1.467,1.467,0,0,1,1.286.971l3.39,8.474a1.758,1.758,0,0,0,1.633,1.105H72.1a1.76,1.76,0,0,1,1.758,1.758v5.829a11.063,11.063,0,0,1-1.928-1.454,1.758,1.758,0,0,0-2.473,0c-2.884,2.852-11.861,6.026-15.769,6.026A1.759,1.759,0,0,0,51.974,52.2a35.259,35.259,0,0,0,.073,13.778A33.67,33.67,0,0,0,59.07,80.894H5.275A1.76,1.76,0,0,1,3.517,79.136ZM85.883,65.3C84.127,74.18,79.018,81.22,70.69,86.24c-8.283-4.993-13.382-11.986-15.165-20.8a33.684,33.684,0,0,1-.349-11.162c4.537-.51,11.7-3.072,15.515-5.9,3.813,2.832,10.981,5.394,15.518,5.9A33.5,33.5,0,0,1,85.883,65.3Z" transform="translate(0 -0.005)"/>
      <path id="Tracciato_27" data-name="Tracciato 27" d="M98.259,43.523h39.916a1.758,1.758,0,1,0,0-3.517H98.259a1.758,1.758,0,1,0,0,3.517Z" transform="translate(-79.532 -32.972)"/>
      <path id="Tracciato_28" data-name="Tracciato 28" d="M139.934,81.764a1.758,1.758,0,0,0-1.758-1.758H98.259a1.758,1.758,0,1,0,0,3.517h39.916A1.758,1.758,0,0,0,139.934,81.764Z" transform="translate(-79.532 -65.938)"/>
      <path id="Tracciato_29" data-name="Tracciato 29" d="M231.717,120.006H211.758a1.758,1.758,0,1,0,0,3.517h19.958a1.758,1.758,0,0,0,0-3.517Z" transform="translate(-173.073 -98.905)"/>
      <path id="Tracciato_30" data-name="Tracciato 30" d="M276.633,160.006H266.258a1.758,1.758,0,1,0,0,3.517h10.375a1.758,1.758,0,1,0,0-3.517Z" transform="translate(-217.989 -131.871)"/>
      <path id="Tracciato_31" data-name="Tracciato 31" d="M353.059,327.6a5.24,5.24,0,0,0-3.73,1.545L344.476,334l-.825-.825a5.275,5.275,0,0,0-7.46,7.46l4.555,4.555a5.281,5.281,0,0,0,7.46,0l8.583-8.583a5.275,5.275,0,0,0-3.73-9.005Zm1.243,6.518-8.583,8.583a1.76,1.76,0,0,1-2.486,0l-4.555-4.555a1.758,1.758,0,1,1,2.486-2.486l2.068,2.068a1.758,1.758,0,0,0,2.487,0l6.1-6.1a1.758,1.758,0,0,1,2.486,2.486Z" transform="translate(-275.801 -269.997)"/>
      <path id="Tracciato_32" data-name="Tracciato 32" d="M108.751,420.01a1.758,1.758,0,1,0,0,3.517h0a1.758,1.758,0,1,0,0-3.517Z" transform="translate(-88.179 -346.155)"/>
    </g>
  </g>
</svg>
