<svg xmlns="http://www.w3.org/2000/svg" width="81.648" height="81.648" viewBox="0 0 81.648 81.648">
  <g id="cityscape" transform="translate(-1 -1)">
    <path id="Tracciato_10" data-name="Tracciato 10" d="M80.015,80.015V40.507H77.381V35.24H74.747v-7.9H72.113V22.071H69.479v5.268H66.846v7.9H64.212V5.978l-7.9,1.58V3.634H53.676V8.085l-2.634.527V1H48.409V9.139l-2.634.527V3.634H43.141v6.56l-7.9,1.58v7.663h-23.7v2.634h2.634V37.993a8.08,8.08,0,0,0-1.317-.12c-5.082,0-9.218,4.726-9.218,10.535,0,5.3,3.442,9.681,7.9,10.415V60.54a5.873,5.873,0,0,0-3.951-1.6C3.954,58.944,1,62.488,1,66.846c0,3.816,2.266,7.007,5.268,7.742v5.427H1v2.634H82.648V80.015ZM22.071,78.7a3.952,3.952,0,0,1,7.394-1.94l.408.723,1.416-.1a3.892,3.892,0,0,1,1.248.228l1.28.429.4-1.289A6.585,6.585,0,0,1,46.274,75.52l.823,1.491,1.235-1.172a4.007,4.007,0,0,1,5.419,0l1.235,1.172.823-1.491a6.583,6.583,0,0,1,12.027,1.142l.37,1.136,1.168-.258a6.564,6.564,0,0,1,6.661,2.474H22.326a3.945,3.945,0,0,1-.255-1.317Zm55.31-35.557v34.42a9.3,9.3,0,0,0-2.634-1.9V45.775H56.31V71.152A9.238,9.238,0,0,0,54.332,73a6.051,6.051,0,0,0-.656-.323V43.141Zm-15.8,26.338a9.173,9.173,0,0,0-2.634.4V48.409h5.268V69.861A9.251,9.251,0,0,0,61.578,69.479Zm5.268-21.071h5.268V74.871a9.035,9.035,0,0,0-2.187-.082,9.182,9.182,0,0,0-3.08-3.64Zm-10.535-7.9V37.873H74.747v2.634ZM69.479,29.972h2.634V35.24H69.479Zm-7.9-20.781V35.24h-7.9v5.268H51.043V72.133a6.561,6.561,0,0,0-3.29.868,9.226,9.226,0,0,0-7.246-3.521,9.329,9.329,0,0,0-2.634.378V13.931ZM16.8,22.071H35.24V71.14a9.144,9.144,0,0,0-3.1,3.673,6.668,6.668,0,0,0-.852-.062,6.562,6.562,0,0,0-11.707,5.264H14.169V75.233l7.9-9.217V62.775c4.459-.735,7.9-5.119,7.9-10.415a10.851,10.851,0,0,0-4.766-9.218h2.132V40.507H24.7v2.348a8.212,8.212,0,0,0-3.951-1.031c-.227,0-.458.014-.693.037A9.582,9.582,0,0,0,16.8,38.9Zm5.268,26.338A11.785,11.785,0,0,0,21.4,44.5c3.327.394,5.934,3.769,5.934,7.862,0,4.358-2.954,7.9-6.585,7.9a6.025,6.025,0,0,1-4.446-2.093A10.635,10.635,0,0,0,22.071,48.409Zm-7.9,11.3a8.829,8.829,0,0,0,5.268,3.07v2.264l-5.268,6.146Zm-7.9-11.3c0-4.358,2.954-7.9,6.585-7.9s6.585,3.544,6.585,7.9c0,3.816-2.266,7.007-5.268,7.742V47.092H11.535v9.059C8.534,55.416,6.268,52.225,6.268,48.409ZM3.634,66.846c0-2.905,1.773-5.268,3.951-5.268s3.951,2.363,3.951,5.268-1.773,5.268-3.951,5.268S3.634,69.751,3.634,66.846ZM8.9,74.588a6.109,6.109,0,0,0,2.634-1.435v6.862H8.9Z"/>
    <path id="Tracciato_11" data-name="Tracciato 11" d="M38.9,13H31V23.535h7.9Zm-2.634,7.9H33.634V15.634h2.634Z" transform="translate(9.507 3.803)"/>
    <path id="Tracciato_12" data-name="Tracciato 12" d="M38.9,23H31V33.535h7.9Zm-2.634,7.9H33.634V25.634h2.634Z" transform="translate(9.507 6.972)"/>
    <path id="Tracciato_13" data-name="Tracciato 13" d="M38.9,33H31V43.535h7.9Zm-2.634,7.9H33.634V35.634h2.634Z" transform="translate(9.507 10.141)"/>
    <path id="Tracciato_14" data-name="Tracciato 14" d="M38.9,43H31V53.535h7.9Zm-2.634,7.9H33.634V45.634h2.634Z" transform="translate(9.507 13.31)"/>
    <path id="Tracciato_15" data-name="Tracciato 15" d="M46.9,13H39V23.535h7.9Zm-2.634,7.9H41.634V15.634h2.634Z" transform="translate(12.043 3.803)"/>
    <path id="Tracciato_16" data-name="Tracciato 16" d="M15,19h2.634v2.634H15Z" transform="translate(4.437 5.704)"/>
    <path id="Tracciato_17" data-name="Tracciato 17" d="M19,19h2.634v2.634H19Z" transform="translate(5.704 5.704)"/>
    <path id="Tracciato_18" data-name="Tracciato 18" d="M23,19h2.634v2.634H23Z" transform="translate(6.972 5.704)"/>
    <path id="Tracciato_19" data-name="Tracciato 19" d="M15,23h2.634v2.634H15Z" transform="translate(4.437 6.972)"/>
    <path id="Tracciato_20" data-name="Tracciato 20" d="M19,23h2.634v2.634H19Z" transform="translate(5.704 6.972)"/>
    <path id="Tracciato_21" data-name="Tracciato 21" d="M23,23h2.634v2.634H23Z" transform="translate(6.972 6.972)"/>
    <path id="Tracciato_22" data-name="Tracciato 22" d="M19,27h2.634v2.634H19Z" transform="translate(5.704 8.24)"/>
    <path id="Tracciato_23" data-name="Tracciato 23" d="M15,27h2.634v2.634H15Z" transform="translate(4.437 8.24)"/>
    <path id="Tracciato_24" data-name="Tracciato 24" d="M23,27h2.634v2.634H23Z" transform="translate(6.972 8.24)"/>
    <path id="Tracciato_25" data-name="Tracciato 25" d="M23,31h2.634v2.634H23Z" transform="translate(6.972 9.507)"/>
  </g>
</svg>
