<svg xmlns="http://www.w3.org/2000/svg" width="90.474" height="90.474" viewBox="0 0 90.474 90.474">
  <g id="Electric_Plug" data-name="Electric Plug" transform="translate(-2 -2)">
    <path id="Tracciato_33" data-name="Tracciato 33" d="M57.792,78.9H68.348a4.537,4.537,0,0,0,4.524-4.524V62.1A6.032,6.032,0,0,0,77.4,56.284V53.193A16.6,16.6,0,0,0,92.474,36.682V24.619a4.537,4.537,0,0,0-4.524-4.524H86.443V8.032a6.032,6.032,0,1,0-12.063,0V20.095H68.348V8.032a6.032,6.032,0,1,0-12.063,0V20.095H54.777a4.537,4.537,0,0,0-4.524,4.524V36.682A16.6,16.6,0,0,0,65.332,53.193v3.091A6.032,6.032,0,0,0,69.856,62.1V74.379a1.508,1.508,0,0,1-1.508,1.508H57.792a4.516,4.516,0,0,0-4.373,5.64,4.6,4.6,0,0,0,4.539,3.408H87.95a1.508,1.508,0,0,1,1.508,1.508V87.95a1.508,1.508,0,0,1-1.508,1.508H33.666A10.567,10.567,0,0,1,23.111,78.9V50.253H36.682a4.537,4.537,0,0,0,4.524-4.524V6.524A4.537,4.537,0,0,0,36.682,2H6.524A4.537,4.537,0,0,0,2,6.524V45.729a4.537,4.537,0,0,0,4.524,4.524H20.095V78.9A13.592,13.592,0,0,0,33.666,92.474H87.95a4.537,4.537,0,0,0,4.524-4.524V86.443a4.537,4.537,0,0,0-4.524-4.524H57.958a1.659,1.659,0,0,1-1.629-1.131,1.451,1.451,0,0,1,.422-1.448A1.4,1.4,0,0,1,57.792,78.9ZM77.4,8.032a3.016,3.016,0,1,1,6.032,0V24.619H77.4Zm-18.095,0a3.016,3.016,0,1,1,6.032,0V24.619H59.3Zm6.047,42.131A13.571,13.571,0,0,1,53.269,36.682V24.619a1.508,1.508,0,0,1,1.508-1.508h1.508v3.016a1.508,1.508,0,0,0,1.508,1.508H66.84a1.508,1.508,0,0,0,1.508-1.508V23.111h6.032v3.016a1.508,1.508,0,0,0,1.508,1.508h9.047a1.508,1.508,0,0,0,1.508-1.508V23.111H87.95a1.508,1.508,0,0,1,1.508,1.508V36.682A13.571,13.571,0,0,1,77.38,50.162a6.017,6.017,0,1,0-12.033,0Zm3,6.122V50.253a3.016,3.016,0,0,1,6.032,0v6.032a3.016,3.016,0,0,1-6.032,0ZM6.524,47.237a1.508,1.508,0,0,1-1.508-1.508V6.524A1.508,1.508,0,0,1,6.524,5.016H36.682A1.508,1.508,0,0,1,38.19,6.524V45.729a1.508,1.508,0,0,1-1.508,1.508Z" transform="translate(0 0)" fill="#00883f"/>
    <rect id="Rettangolo_79" data-name="Rettangolo 79" width="3" height="4" transform="translate(70 51.474)" fill="#00883f"/>
    <path id="Tracciato_34" data-name="Tracciato 34" d="M28.883,19.772a1.508,1.508,0,0,0-1.282-.709h-7.54V8.507A1.508,1.508,0,0,0,18.9,7.045a1.484,1.484,0,0,0-1.689.784L8.164,25.924A1.508,1.508,0,0,0,9.506,28.11h7.54V38.666a1.508,1.508,0,0,0,1.161,1.463,1.369,1.369,0,0,0,.347.045,1.508,1.508,0,0,0,1.342-.829l9.047-18.095a1.518,1.518,0,0,0-.06-1.478Zm-8.821,12.5V26.6a1.508,1.508,0,0,0-1.508-1.508h-6.6l5.1-10.193v5.67a1.508,1.508,0,0,0,1.508,1.508h6.6Z" transform="translate(3.049 2.54)" fill="#00883f"/>
  </g>
</svg>
