<svg xmlns="http://www.w3.org/2000/svg" width="197.935" height="66.209" viewBox="0 0 197.935 66.209">
  <g id="Raggruppa_419" data-name="Raggruppa 419" transform="translate(-94.278 -32.555)">
    <g id="Raggruppa_420" data-name="Raggruppa 420" transform="translate(94.28 84.355)">
      <g id="Raggruppa_419-2" data-name="Raggruppa 419" transform="translate(0 0)">
        <path id="Tracciato_381" data-name="Tracciato 381" d="M96.461,105.6a2.415,2.415,0,0,0,2.486,2.139c1.875,0,2.812-.957,2.812-2.975v-1.04a3.17,3.17,0,0,1-2.873,1.447,4.837,4.837,0,0,1,0-9.661,3.086,3.086,0,0,1,2.935,1.447V95.7H104.1v8.988c0,2.649-1.366,5.115-5.1,5.115-2.629,0-4.463-1.63-4.728-3.627Zm5.361-5.258a2.579,2.579,0,1,0-2.548,2.812A2.554,2.554,0,0,0,101.821,100.344Z" transform="translate(-94.28 -95.391)" fill="#e64242"/>
        <path id="Tracciato_382" data-name="Tracciato 382" d="M114.766,98.054a5.2,5.2,0,0,0-.774-.061c-1.834,0-2.67,1.06-2.67,2.915v4.728h-2.364V95.71h2.3V97.3a3,3,0,0,1,2.873-1.712,3.36,3.36,0,0,1,.632.061Z" transform="translate(-96.853 -95.404)" fill="#e64242"/>
        <path id="Tracciato_383" data-name="Tracciato 383" d="M126.886,100.623a5.147,5.147,0,1,1-5.156-5.258A5.055,5.055,0,0,1,126.886,100.623Zm-2.384,0a2.791,2.791,0,1,0-5.544,0,2.848,2.848,0,0,0,2.772,3.159C123.2,103.783,124.5,102.7,124.5,100.623Z" transform="translate(-98.191 -95.365)" fill="#e64242"/>
        <path id="Tracciato_384" data-name="Tracciato 384" d="M134.652,105.947a3.67,3.67,0,0,1-3.75-3.954V95.736h2.364v5.829c0,1.223.571,2.262,2,2.262a1.988,1.988,0,0,0,2.078-2.221v-5.87h2.364v8.112a16.021,16.021,0,0,0,.1,1.814h-2.262a7.31,7.31,0,0,1-.082-1.1A3.176,3.176,0,0,1,134.652,105.947Z" transform="translate(-100.7 -95.43)" fill="#e64242"/>
        <path id="Tracciato_385" data-name="Tracciato 385" d="M144.542,109.486v-13.8h2.284v1.345a3.562,3.562,0,0,1,3.159-1.569c2.934,0,4.586,2.242,4.586,5.177,0,2.976-1.814,5.218-4.668,5.218a3.586,3.586,0,0,1-3.016-1.366v4.994Zm4.994-11.923c-1.549,0-2.67,1.223-2.67,3.077,0,1.9,1.121,3.119,2.67,3.119,1.569,0,2.67-1.223,2.67-3.119C152.205,98.787,151.126,97.564,149.536,97.564Z" transform="translate(-103.091 -95.382)" fill="#e64242"/>
      </g>
    </g>
    <path id="Tracciato_386" data-name="Tracciato 386" d="M104.179,60.2c0,5.18,3.475,8.066,7.606,8.066a6.72,6.72,0,0,0,6.754-4.853l8.786,2.689c-1.443,5.7-6.82,11.344-15.541,11.344-9.7,0-17.508-7.148-17.508-17.245a16.823,16.823,0,0,1,17.179-17.311c8.984,0,14.229,5.508,15.672,11.344l-8.918,2.689a6.409,6.409,0,0,0-6.557-4.853C107.524,52.072,104.179,54.956,104.179,60.2Z" transform="translate(0 -1.812)" fill="#e64242"/>
    <path id="Tracciato_387" data-name="Tracciato 387" d="M148.4,57.645l7.672-1.18c1.771-.262,2.36-1.115,2.36-2.23,0-1.9-1.639-3.54-4.787-3.54a5.242,5.242,0,0,0-5.573,4.787l-8.656-1.771c.394-4.655,4.721-10.819,14.295-10.819,10.557,0,14.427,5.9,14.427,12.59V71.415a31.963,31.963,0,0,0,.393,5.049h-8.984a15.9,15.9,0,0,1-.328-3.672c-1.7,2.754-4.852,4.589-9.18,4.589-7.148,0-11.279-4.721-11.279-9.9C138.759,61.711,143.021,58.432,148.4,57.645Zm10.033,6.033V62.235l-6.163.984c-2.1.327-3.672,1.31-3.672,3.606,0,1.705,1.114,3.344,3.869,3.344C155.415,70.169,158.431,68.727,158.431,63.678Z" transform="translate(-7.797 -1.812)" fill="#e64242"/>
    <path id="Tracciato_388" data-name="Tracciato 388" d="M180.45,76.464V43.875h9.508v3.738c1.64-2.885,5.836-4.721,9.377-4.721,4.655,0,8,1.9,9.639,5.115,2.557-3.672,5.7-5.115,10.1-5.115,6.163,0,12.065,3.607,12.065,12.459V76.464H221.5V57.58c0-3.082-1.639-5.508-5.18-5.508a5.3,5.3,0,0,0-5.442,5.573V76.464H201.04V57.58c0-3.082-1.639-5.508-5.245-5.508-3.475,0-5.377,2.689-5.377,5.639V76.464Z" transform="translate(-15.105 -1.812)" fill="#e64242"/>
    <path id="Tracciato_389" data-name="Tracciato 389" d="M255.244,65.711c.131,2.229,1.705,4.393,5.115,4.393,2.557,0,3.8-1.377,3.8-2.82,0-1.18-.787-2.164-3.213-2.689l-3.738-.852c-6.951-1.508-9.705-5.443-9.705-10.033,0-5.967,5.246-10.819,12.525-10.819,9.442,0,12.72,5.9,13.049,9.705L264.818,54.1a4.282,4.282,0,0,0-4.655-4c-1.9,0-3.541,1.115-3.541,2.82,0,1.376,1.115,2.163,2.557,2.425l4.328.853c6.754,1.377,10.033,5.442,10.033,10.229,0,5.574-4.262,11.016-12.983,11.016-10.23,0-13.508-6.623-13.77-10.229Z" transform="translate(-26.734 -1.812)" fill="#e64242"/>
    <path id="Tracciato_390" data-name="Tracciato 390" d="M299.132,42.063h6.361v8.721h-6.361v12.2c0,2.689,1.442,3.41,3.606,3.41a12.309,12.309,0,0,0,2.623-.327v8.262a11.868,11.868,0,0,1-5.181.918c-6.754,0-10.884-4-10.884-10.492V50.784h-5.77V42.063h1.64c3.409,0,5.049-2.3,5.049-5.311v-4.2h8.918Z" transform="translate(-33.174)" fill="#e64242"/>
    <circle id="Ellisse_21" data-name="Ellisse 21" cx="7.455" cy="7.455" r="7.455" transform="translate(277.302 41.08)" fill="#e64242"/>
    <circle id="Ellisse_22" data-name="Ellisse 22" cx="7.455" cy="7.455" r="7.455" transform="translate(277.302 60.725)" fill="#e64242"/>
  </g>
</svg>
