<svg xmlns="http://www.w3.org/2000/svg" width="575.972" height="475.555" viewBox="0 0 575.972 475.555">
  <g id="Raggruppa_721" data-name="Raggruppa 721" transform="translate(-1166 -3551.418)">
    <g id="Raggruppa_651" data-name="Raggruppa 651" transform="translate(138 -1670.999)">
      <g id="Raggruppa_640" data-name="Raggruppa 640" transform="translate(486 -115)">
        <g id="Tracciato_443" data-name="Tracciato 443" transform="translate(801.067 5496.067)" fill="none">
          <path d="M158.453,0A158.452,158.452,0,1,1,0,158.452,158.453,158.453,0,0,1,158.453,0Z" stroke="none"/>
          <path d="M 158.4528045654297 5 C 148.0379333496094 5 137.6311187744141 6.048980712890625 127.5214385986328 8.117706298828125 C 117.6711730957031 10.13333129882812 107.9822082519531 13.14096069335938 98.72357177734375 17.0570068359375 C 89.63194274902344 20.9024658203125 80.8626708984375 25.66229248046875 72.65934753417969 31.204345703125 C 64.53271484375 36.69454956054688 56.89056396484375 42.99990844726562 49.9453125 49.9451904296875 C 43 56.89047241210938 36.69461059570312 64.53260803222656 31.204345703125 72.65924072265625 C 25.66229248046875 80.86251831054688 20.90243530273438 89.63179016113281 17.05703735351562 98.72337341308594 C 13.14093017578125 107.9819641113281 10.13336181640625 117.6709289550781 8.11767578125 127.5211486816406 C 6.0489501953125 137.6308288574219 5 148.0376434326172 5 158.4524688720703 C 5 168.8672943115234 6.0489501953125 179.2741088867188 8.11767578125 189.3837890625 C 10.13336181640625 199.2340087890625 13.14093017578125 208.9229736328125 17.05703735351562 218.1815490722656 C 20.90243530273438 227.2731475830078 25.66229248046875 236.0424194335938 31.204345703125 244.2456970214844 C 36.69461059570312 252.3723297119141 43 260.0144653320312 49.9453125 266.9597473144531 C 56.89056396484375 273.905029296875 64.53271484375 280.2103881835938 72.65934753417969 285.7005920410156 C 80.8626708984375 291.2426452636719 89.63194274902344 296.0024719238281 98.72357177734375 299.8479309082031 C 107.9822082519531 303.7639770507812 117.6711730957031 306.7716064453125 127.5214385986328 308.7872314453125 C 137.6311187744141 310.85595703125 148.0379333496094 311.9049377441406 158.4528045654297 311.9049377441406 C 168.86767578125 311.9049377441406 179.2744903564453 310.85595703125 189.3841705322266 308.7872314453125 C 199.2344360351562 306.7716064453125 208.9234008789062 303.7639770507812 218.1820373535156 299.8479309082031 C 227.2736663818359 296.0024719238281 236.0429382324219 291.2426452636719 244.2462615966797 285.7005920410156 C 252.3728942871094 280.2103881835938 260.0150451660156 273.905029296875 266.9602966308594 266.9597473144531 C 273.9056396484375 260.0144653320312 280.2109985351562 252.3723297119141 285.7012634277344 244.2456970214844 C 291.2433166503906 236.0424194335938 296.003173828125 227.2731475830078 299.8485717773438 218.1815490722656 C 303.7646789550781 208.9229736328125 306.7722473144531 199.2340087890625 308.7879333496094 189.3837890625 C 310.8566589355469 179.2741088867188 311.9056091308594 168.8672943115234 311.9056091308594 158.4524688720703 C 311.9056091308594 148.0376434326172 310.8566589355469 137.6308288574219 308.7879333496094 127.5211486816406 C 306.7722473144531 117.6709289550781 303.7646789550781 107.9819641113281 299.8485717773438 98.72337341308594 C 296.003173828125 89.63179016113281 291.2433166503906 80.86251831054688 285.7012634277344 72.65924072265625 C 280.2109985351562 64.53260803222656 273.9056396484375 56.89047241210938 266.9602966308594 49.9451904296875 C 260.0150451660156 42.99990844726562 252.3728942871094 36.69454956054688 244.2462615966797 31.204345703125 C 236.0429382324219 25.66229248046875 227.2736663818359 20.9024658203125 218.1820373535156 17.0570068359375 C 208.9234008789062 13.14096069335938 199.2344360351562 10.13333129882812 189.3841705322266 8.117706298828125 C 179.2744903564453 6.048980712890625 168.86767578125 5 158.4528045654297 5 M 158.4528045654297 0 C 245.9638519287109 0 316.9056091308594 70.94160461425781 316.9056091308594 158.4524688720703 C 316.9056091308594 245.9633331298828 245.9638519287109 316.9049377441406 158.4528045654297 316.9049377441406 C 70.94175720214844 316.9049377441406 0 245.9633331298828 0 158.4524688720703 C 0 70.94160461425781 70.94175720214844 0 158.4528045654297 0 Z" stroke="none" fill="#000"/>
        </g>
        <text id="_20_milioni_di_litri_risparmiati_con_il_progetto_pulizia_cucine_a_basso_impatto" data-name="20 milioni 
di litri risparmiati
con il progetto pulizia cucine a basso impatto" transform="translate(827.001 5559.986)" fill="#e64242" font-size="42" font-family="Helvetica"><tspan x="41.459" y="32">20 milioni </tspan><tspan y="32" font-size="35"></tspan><tspan font-size="24" fill="#000"><tspan x="49.322" y="72">di litri risparmiati</tspan><tspan x="23.266" y="112">con il progetto pulizia </tspan><tspan x="13.264" y="152">cucine a basso impatto</tspan></tspan></text>
      </g>
    </g>
    <text id="_-9_Obiettivo_2021" data-name="-9%
Obiettivo 2021" transform="translate(1166 3641)" fill="#e64242" font-size="42" font-family="Helvetica" letter-spacing="-0.015em"><tspan x="102.655" y="32">-9%</tspan><tspan font-size="35" fill="#000"><tspan x="30.56" y="72">Obiettivo 2021</tspan></tspan></text>
    <g id="Tracciato_443-2" data-name="Tracciato 443" transform="translate(1166.418 3551.418)" fill="none">
      <path d="M139.582,0A139.582,139.582,0,1,1,0,139.582,139.582,139.582,0,0,1,139.582,0Z" stroke="none"/>
      <path d="M 139.5819244384766 4.999969482421875 C 130.4474639892578 4.999969482421875 121.3201904296875 5.919952392578125 112.4536895751953 7.734283447265625 C 103.8150329589844 9.501983642578125 95.31784057617188 12.13967895507812 87.1981201171875 15.57400512695312 C 79.22465515136719 18.946533203125 71.53384399414062 23.1209716796875 64.33938598632812 27.9814453125 C 57.21195983886719 32.796630859375 50.50950622558594 38.32670593261719 44.41812133789062 44.41806030273438 C 38.32676696777344 50.50936889648438 32.79669189453125 57.21182250976562 27.98150634765625 64.33924865722656 C 23.12100219726562 71.53370666503906 18.946533203125 79.2244873046875 15.57406616210938 87.19793701171875 C 12.13967895507812 95.31767272949219 9.50201416015625 103.8148193359375 7.73431396484375 112.4534454345703 C 5.919952392578125 121.3199462890625 5 130.4471740722656 5 139.5816345214844 C 5 148.7160949707031 5.919952392578125 157.8433227539062 7.73431396484375 166.7098236083984 C 9.50201416015625 175.3484039306641 12.13967895507812 183.8455963134766 15.57406616210938 191.96533203125 C 18.946533203125 199.9387817382812 23.12100219726562 207.6295471191406 27.98150634765625 214.8240203857422 C 32.79669189453125 221.9514007568359 38.32676696777344 228.6538696289062 44.41812133789062 234.7452087402344 C 50.50950622558594 240.8365631103516 57.21195983886719 246.3665924072266 64.33938598632812 251.1817932128906 C 71.53384399414062 256.0422973632812 79.22465515136719 260.2167358398438 87.1981201171875 263.5892028808594 C 95.31784057617188 267.0235595703125 103.8150329589844 269.6612548828125 112.4536895751953 271.428955078125 C 121.3201904296875 273.2432861328125 130.4474639892578 274.1632385253906 139.5819244384766 274.1632385253906 C 148.7163848876953 274.1632385253906 157.8436584472656 273.2432861328125 166.7101440429688 271.428955078125 C 175.3488159179688 269.6612548828125 183.8460083007812 267.0235595703125 191.9657287597656 263.5892028808594 C 199.9391937255859 260.2167358398438 207.6300048828125 256.0422973632812 214.824462890625 251.1817932128906 C 221.9518890380859 246.3665924072266 228.6543426513672 240.8365631103516 234.7457275390625 234.7452087402344 C 240.8370819091797 228.6538696289062 246.3671569824219 221.9514007568359 251.1823425292969 214.8240203857422 C 256.0428466796875 207.6295471191406 260.2173156738281 199.9387817382812 263.5897827148438 191.96533203125 C 267.024169921875 183.8455963134766 269.6618347167969 175.3484039306641 271.4295349121094 166.7098236083984 C 273.243896484375 157.8433227539062 274.1638488769531 148.7160949707031 274.1638488769531 139.5816345214844 C 274.1638488769531 130.4471740722656 273.243896484375 121.3199462890625 271.4295349121094 112.4534454345703 C 269.6618347167969 103.8148193359375 267.024169921875 95.31767272949219 263.5897827148438 87.19793701171875 C 260.2173156738281 79.2244873046875 256.0428466796875 71.53370666503906 251.1823425292969 64.33924865722656 C 246.3671569824219 57.21182250976562 240.8370819091797 50.50936889648438 234.7457275390625 44.41806030273438 C 228.6543426513672 38.32670593261719 221.9518890380859 32.796630859375 214.824462890625 27.9814453125 C 207.6300048828125 23.1209716796875 199.9391937255859 18.946533203125 191.9657287597656 15.57400512695312 C 183.8460083007812 12.13967895507812 175.3488159179688 9.501983642578125 166.7101440429688 7.734283447265625 C 157.8436584472656 5.919952392578125 148.7163848876953 4.999969482421875 139.5819244384766 4.999969482421875 M 139.5819244384766 -3.0517578125e-05 C 216.6708831787109 -3.0517578125e-05 279.1638488769531 62.49282836914062 279.1638488769531 139.5816345214844 C 279.1638488769531 216.6704406738281 216.6708831787109 279.1632385253906 139.5819244384766 279.1632385253906 C 62.49296569824219 279.1632385253906 0 216.6704406738281 0 139.5816345214844 C 0 62.49282836914062 62.49296569824219 -3.0517578125e-05 139.5819244384766 -3.0517578125e-05 Z" stroke="none" fill="#000"/>
    </g>
  </g>
</svg>
