<svg xmlns="http://www.w3.org/2000/svg" xmlns:xlink="http://www.w3.org/1999/xlink" width="15.909" height="16.015" viewBox="0 0 15.909 16.015">
  <defs>
    <clipPath id="clip-path">
      <path id="Tracciato_396" data-name="Tracciato 396" d="M0-51.985H15.909V-68H0Z" transform="translate(0 68)" fill="none"/>
    </clipPath>
  </defs>
  <g id="Raggruppa_444" data-name="Raggruppa 444" transform="translate(0 68)">
    <g id="Raggruppa_447" data-name="Raggruppa 447" transform="translate(0 -68)" clip-path="url(#clip-path)">
      <g id="Raggruppa_444-2" data-name="Raggruppa 444" transform="translate(0.495 5.283)">
        <path id="Tracciato_393" data-name="Tracciato 393" d="M-10.983-33.08a.541.541,0,0,1-.541.541h-2.3a.541.541,0,0,1-.541-.541v-9.65a.541.541,0,0,1,.541-.541h2.3a.541.541,0,0,1,.541.541Z" transform="translate(14.367 43.27)"/>
      </g>
      <g id="Raggruppa_445" data-name="Raggruppa 445" transform="translate(0 0)">
        <path id="Tracciato_394" data-name="Tracciato 394" d="M-7.1-14.2a2.187,2.187,0,0,1-2.187-2.187A2.187,2.187,0,0,1-7.1-18.571a2.187,2.187,0,0,1,2.187,2.187A2.187,2.187,0,0,1-7.1-14.2" transform="translate(9.286 18.571)"/>
      </g>
      <g id="Raggruppa_446" data-name="Raggruppa 446" transform="translate(5.403 5.122)">
        <path id="Tracciato_395" data-name="Tracciato 395" d="M-34.1-33.746a.5.5,0,0,1-.5.5h-2.47a.5.5,0,0,1-.5-.5v-4.526c0-.675.2-2.959-1.765-2.959-1.522,0-1.831,1.563-1.893,2.265v5.221a.5.5,0,0,1-.5.5h-2.389a.5.5,0,0,1-.5-.5v-9.737a.5.5,0,0,1,.5-.5h2.389a.5.5,0,0,1,.5.5v.842a3.391,3.391,0,0,1,3.19-1.5c3.955,0,3.933,3.7,3.933,5.726Z" transform="translate(44.609 44.142)"/>
      </g>
    </g>
  </g>
</svg>
