<svg xmlns="http://www.w3.org/2000/svg" width="32.09" height="32.09" viewBox="0 0 32.09 32.09">
  <g id="Raggruppa_484" data-name="Raggruppa 484" transform="translate(-1816 -1170)">
    <circle id="Ellisse_28" data-name="Ellisse 28" cx="16.045" cy="16.045" r="16.045" transform="translate(1816 1170)" fill="#e64242"/>
    <path id="Tracciato_405" data-name="Tracciato 405" d="M-7.3,0V.037q0,.24-.528.579h.025a3.744,3.744,0,0,1,1.183-.3c.193,0,.289.072.289.213V.616q-.075.189-.554.378c-.478.126-.859.239-1.145.34v.024H-7.8A4.341,4.341,0,0,1-4.336,3.41a5.347,5.347,0,0,1,.73,1.874q.1.163.717.164h.076a4.12,4.12,0,0,0,1.7-.378V5.1a1.993,1.993,0,0,1-1.17,1.094,2.962,2.962,0,0,1-1.031.239q0,.1.981.253l.642.037h.164l.491-.037.025.011v.025a3.376,3.376,0,0,1-2.517.918v.025a7.448,7.448,0,0,1-1.71,3.221,7.511,7.511,0,0,1-1.234,1.2A11.282,11.282,0,0,1-8.337,13.26a11.622,11.622,0,0,1-5.057,1.234h-.491a10.375,10.375,0,0,1-5.687-1.763,11.267,11.267,0,0,1-1.749-1.521,5.647,5.647,0,0,1-.7-.893,5.586,5.586,0,0,0,3.838,1.472A5.46,5.46,0,0,0-14.451,10.3c.084-.117.146-.176.188-.176v-.012l-.138.012h-.188a1.286,1.286,0,0,1-1.032-.5.748.748,0,0,1-.138-.4q0-.491.755-.868V8.341h-.3A2.325,2.325,0,0,1-17.5,7.033,1.72,1.72,0,0,1-16.451,6.5l.315-.037V6.455a3.26,3.26,0,0,1-1.825-1.019,2.362,2.362,0,0,1-.44-1.058A4.842,4.842,0,0,1-17.168,4.2V4.189a3.656,3.656,0,0,1-1.208-.969A2.46,2.46,0,0,1-18.9,1.849V1.585q.956.316,2.881,1.133A20.938,20.938,0,0,1-13,4.265q.566.452,1.082.944h.013a17.181,17.181,0,0,1,1.5-3.2A7.091,7.091,0,0,1-9.167.541l.529-.39.012.012V.188A1.044,1.044,0,0,1-8.789.6V.616h.012A2.888,2.888,0,0,1-7.3,0" transform="translate(1844.025 1180)" fill="#fff"/>
  </g>
</svg>
