<svg xmlns="http://www.w3.org/2000/svg" width="32.09" height="32.09" viewBox="0 0 32.09 32.09">
  <g id="Raggruppa_491" data-name="Raggruppa 491" transform="translate(-1816 -1226)">
    <g id="Raggruppa_485" data-name="Raggruppa 485" transform="translate(0 56)">
      <circle id="Ellisse_28" data-name="Ellisse 28" cx="16.045" cy="16.045" r="16.045" transform="translate(1816 1170)" fill="#e64242"/>
    </g>
    <g id="Raggruppa_492" data-name="Raggruppa 492" transform="translate(1710.515 1222.58)">
      <path id="Tracciato_407" data-name="Tracciato 407" d="M112.956,27.733c.464-1.5,1-2.925,1.495-4.4a8.458,8.458,0,0,1,6.243-12.663A8.318,8.318,0,0,1,130.1,18.94a8.4,8.4,0,0,1-10.992,8c-.439-.137-.983-.585-1.495-.616a7.874,7.874,0,0,0-2.374.7C114.451,27.284,113.763,27.539,112.956,27.733Zm4.836-2.99a7.115,7.115,0,0,0,10.816-5.012,6.924,6.924,0,0,0-7.475-7.65,7.063,7.063,0,0,0-5.1,11.08q-.423,1.16-.791,2.374C116.106,25.285,116.9,24.967,117.792,24.743Z" transform="translate(0 0)" fill="#fff" fill-rule="evenodd"/>
      <path id="Tracciato_409" data-name="Tracciato 409" d="M166.411,59.2c.495,1.035,1.26,2.566,0,3.254a5.9,5.9,0,0,0,3.078,2.9,8.189,8.189,0,0,0,1.143-1.143,10.055,10.055,0,0,1,2.2,1.143,1.97,1.97,0,0,1-2.286,2.023c-2.275-.1-5.4-2.978-6.155-5.1C163.94,61.015,164.455,58.607,166.411,59.2Z" transform="translate(-46.771 -44.214)" fill="#fff" fill-rule="evenodd"/>
    </g>
  </g>
</svg>
